<?xml version="1.0" standalone="no"?>
<!DOCTYPE svg PUBLIC "-//W3C//DTD SVG 20010904//EN"
 "http://www.w3.org/TR/2001/REC-SVG-20010904/DTD/svg10.dtd">
<svg version="1.0" xmlns="http://www.w3.org/2000/svg"
 width="440.000000pt" height="440.000000pt" viewBox="0 0 440.000000 440.000000"
 preserveAspectRatio="xMidYMid meet">
<metadata>
Created by potrace 1.11, written by Peter Selinger 2001-2013
</metadata>
<g transform="translate(0.000000,440.000000) scale(0.100000,-0.100000)"
fill="#000000" stroke="none">
<path d="M1835 3480 c-38 -5 -112 -13 -163 -19 -106 -11 -178 -30 -273 -72
-36 -16 -69 -29 -72 -29 -15 0 -127 -83 -191 -141 -37 -34 -85 -90 -106 -123
-22 -34 -44 -67 -50 -73 -41 -48 -141 -326 -165 -456 -16 -90 -55 -176 -93
-209 -16 -13 -54 -36 -85 -51 -53 -27 -198 -149 -250 -212 -28 -34 -107 -162
-107 -173 0 -4 -11 -28 -24 -52 -23 -43 -43 -119 -53 -203 -7 -51 22 -168 59
-239 39 -76 84 -114 198 -170 210 -104 383 -127 780 -103 99 6 325 32 390 45
25 5 141 10 259 10 223 1 251 3 289 28 20 13 22 13 22 -3 0 -10 17 -46 37 -81
48 -83 147 -160 230 -179 184 -44 375 7 502 134 32 32 64 72 72 89 8 18 20 32
28 32 11 0 12 -13 7 -64 -7 -70 -1 -82 39 -72 27 7 39 35 37 89 -2 30 2 37 18
37 16 0 19 -8 22 -61 3 -53 7 -65 28 -81 38 -28 62 -15 59 31 -1 20 -1 52 0
72 l1 36 98 2 c54 1 124 6 157 11 66 11 75 5 73 -46 -1 -38 8 -54 32 -54 27 0
34 16 32 77 -1 50 0 53 23 53 21 0 25 -7 35 -57 20 -108 28 -129 57 -142 34
-15 43 -2 33 48 -5 20 -10 65 -12 101 l-3 65 35 7 c121 24 198 64 260 135 36
41 44 36 55 -33 7 -47 30 -74 60 -70 17 3 20 11 20 57 0 35 -8 70 -23 99 -20
41 -21 55 -15 143 5 80 3 105 -12 144 -24 62 -77 132 -122 160 -20 12 -39 25
-42 30 -18 25 -186 94 -276 114 -162 35 -464 69 -655 73 l-55 1 2 40 c1 22 4
128 6 236 5 210 -9 309 -54 404 -10 22 -19 53 -19 68 0 40 -46 132 -75 151
-14 9 -25 25 -25 36 0 10 -6 25 -12 32 -7 7 -46 52 -86 100 -40 48 -83 93 -95
99 -12 7 -26 18 -30 26 -11 18 -108 66 -187 93 -157 52 -453 81 -625 60z m343
-65 c253 -28 339 -60 470 -181 65 -59 152 -162 152 -179 0 -4 15 -25 34 -48
48 -59 69 -107 102 -227 l29 -105 0 -380 c1 -209 4 -400 8 -425 23 -156 27
-412 7 -520 -23 -127 -49 -171 -136 -232 -146 -103 -293 -130 -405 -74 -62 31
-139 110 -159 162 -29 76 -63 249 -66 334 -2 52 -6 105 -9 118 -3 12 -1 31 4
41 6 9 7 43 4 73 -5 46 -10 58 -29 67 -13 6 -24 10 -25 8 0 -1 -4 -83 -8 -182
-8 -168 2 -328 24 -385 4 -13 -34 -15 -290 -18 -163 -1 -314 -6 -338 -12 -23
-5 -64 -10 -92 -10 -27 0 -90 -7 -140 -15 -62 -11 -165 -16 -335 -16 -243 0
-246 0 -345 29 -113 34 -229 89 -261 124 -33 36 -82 132 -89 175 -4 21 -11 48
-17 60 -8 17 -8 33 0 62 7 21 12 49 12 61 0 39 52 184 75 210 13 14 29 36 36
50 26 48 74 109 89 115 8 2 47 36 85 75 39 38 93 81 121 95 51 25 134 96 134
114 0 6 11 27 25 47 19 28 25 50 25 89 0 54 34 179 55 205 7 8 15 36 18 63 4
26 15 59 24 74 10 15 23 41 28 58 16 45 123 205 165 245 126 121 151 137 230
150 41 7 80 16 85 20 11 9 100 31 195 49 109 20 406 50 438 45 12 -3 43 -7 70
-9z m527 -165 c14 -22 -13 -8 -41 22 l-29 31 32 -22 c18 -12 35 -26 38 -31z
m35 -40 c0 -5 -2 -10 -4 -10 -3 0 -8 5 -11 10 -3 6 -1 10 4 10 6 0 11 -4 11
-10z m45 -50 c3 -5 1 -10 -4 -10 -6 0 -11 5 -11 10 0 6 2 10 4 10 3 0 8 -4 11
-10z m390 -1085 c440 -33 573 -56 720 -126 155 -74 225 -169 225 -306 l0 -73
-78 -78 c-76 -76 -185 -143 -230 -142 -9 1 -26 15 -37 33 -12 18 -29 32 -40
32 -17 0 -20 -6 -18 -39 3 -47 -7 -56 -62 -56 -22 0 -72 -9 -111 -20 -39 -10
-79 -19 -90 -18 -10 0 -56 -3 -100 -7 l-81 -7 -7 28 c-11 41 -35 64 -68 64
-27 0 -28 -1 -22 -40 l7 -40 -58 0 -58 0 8 48 c7 48 7 96 0 167 -3 22 -7 99
-10 170 -3 72 -10 189 -15 260 -14 179 -15 168 18 161 15 -3 63 -8 107 -11z"/>
<path d="M1157 2696 c-21 -8 -46 -20 -55 -28 -9 -8 -29 -20 -44 -27 -54 -28
-118 -120 -118 -171 0 -34 90 -127 148 -153 71 -31 182 -34 272 -7 86 26 129
55 155 104 24 44 9 66 -45 66 -33 0 -43 -6 -69 -39 -32 -40 -102 -81 -137 -81
-18 0 -18 1 2 18 12 9 27 27 33 39 16 31 3 126 -25 191 -13 28 -20 52 -16 52
4 0 31 -9 61 -21 57 -21 65 -28 107 -91 19 -30 31 -38 54 -38 29 0 40 13 21
25 -5 3 -12 19 -16 36 -9 39 -70 84 -144 105 -31 8 -70 20 -87 25 -39 12 -51
11 -97 -5z m-51 -185 c1 -71 4 -84 32 -125 33 -48 31 -54 -15 -34 -34 15 -133
97 -133 110 0 19 93 127 110 128 3 0 5 -36 6 -79z"/>
<path d="M1970 2702 c-8 -5 -32 -12 -52 -16 -52 -9 -128 -73 -161 -134 -30
-56 -29 -72 6 -72 31 0 42 9 81 64 18 26 42 54 53 61 20 14 20 13 19 -68 -1
-84 18 -177 37 -177 7 0 7 -4 -1 -12 -22 -22 -97 18 -129 68 -26 41 -57 63
-70 50 -10 -10 47 -95 82 -121 50 -38 153 -58 230 -44 104 19 166 48 210 97
35 40 65 86 65 98 0 3 -11 9 -25 14 -13 5 -36 26 -49 47 -46 70 -71 92 -130
118 -65 29 -142 41 -166 27z m195 -111 c66 -66 67 -68 53 -93 -22 -40 -102
-118 -119 -118 -15 0 -17 8 -14 53 1 28 3 85 4 125 1 62 3 72 19 72 10 0 36
-18 57 -39z"/>
<path d="M1438 2280 c-41 -22 -46 -36 -23 -79 21 -42 80 -57 105 -26 15 18 24
86 13 102 -15 22 -57 23 -95 3z"/>
<path d="M1674 2285 c-41 -17 -48 -30 -34 -64 13 -32 53 -55 80 -46 26 8 44
58 31 84 -18 33 -42 41 -77 26z"/>
<path d="M532 1927 c-24 -11 -82 -97 -82 -122 0 -8 -6 -15 -14 -15 -22 0 -38
-26 -39 -64 -1 -43 42 -103 89 -122 70 -29 192 -9 239 40 20 22 45 65 45 81 0
8 5 15 10 15 6 0 10 6 10 14 0 50 -111 162 -169 171 -20 4 -43 7 -51 9 -8 2
-25 -2 -38 -7z m97 -51 c29 -15 57 -44 50 -51 -11 -10 -139 -17 -139 -8 0 9
50 72 58 73 2 0 15 -6 31 -14z m31 -139 c0 -20 -61 -72 -100 -86 -30 -10 -38
-9 -60 7 -14 11 -26 28 -28 39 -3 23 15 30 113 42 33 5 63 9 68 9 4 1 7 -4 7
-11z"/>
</g>
</svg>
